<?xml version="1.0" encoding="UTF-8"?>
<svg xmlns="http://www.w3.org/2000/svg" xmlns:xlink="http://www.w3.org/1999/xlink" viewBox="0 0 48 48" width="48px" height="48px">
<g id="surface177422464">
<path style=" stroke:none;fill-rule:nonzero;fill:rgb(100%,100%,100%);fill-opacity:1;" d="M 23.695312 37.558594 L 24.878906 37.558594 C 25.71875 37.558594 26.507812 37.167969 27.015625 36.5 L 34.5 26.652344 L 41.984375 36.5 C 42.492188 37.167969 43.285156 37.558594 44.125 37.558594 L 45.304688 37.558594 L 35.757812 25 L 44.878906 13 L 43.695312 13 C 42.855469 13 42.066406 13.390625 41.558594 14.0625 L 34.5 23.347656 L 27.441406 14.058594 C 26.933594 13.390625 26.140625 13 25.300781 13 L 24.121094 13 L 33.242188 25 Z M 23.695312 37.558594 "/>
<path style=" stroke:none;fill-rule:nonzero;fill:rgb(100%,100%,100%);fill-opacity:1;" d="M 24 26 L 24 23 C 24 16.324219 18.054688 11.039062 11.171875 12.148438 C 5.8125 13.011719 2 17.855469 2 23.285156 L 2 26.140625 C 2 32.695312 6.777344 37.929688 12.867188 38 C 17.960938 38.058594 22.257812 34.65625 23.574219 30 L 22.546875 30 C 21.925781 30 21.363281 30.355469 21.097656 30.914062 C 19.355469 34.507812 15.308594 36.777344 10.867188 35.757812 C 6.777344 34.816406 4 30.980469 4 26.78125 L 4 26 Z M 4 23.710938 C 4 19.003906 6.804688 15.152344 10.925781 14.230469 C 16.796875 12.921875 22 17.351562 22 23 L 22 24 L 4 24 Z M 4 23.710938 "/>
</g>
</svg>
